# xmcd
#
# Track frame offsets: 
#        150
#        9130
#        27890
#        46795
#        68362
#        72460
#        88022
#        105900
#        124167
#        139042
#        155427
#        172007
#        191030
#        209345
#
# Disc length: 2912 seconds
#
# Revision: 8
# Processed by: cddbd v1.5.2PL0 Copyright (c) Steve Scherf et al.
# Submitted via: ExactAudioCopy v0.99pb4
#
DISCID=b20b5e0e
DTITLE=리쌍 - 2집 - 재, 계발(再啓發)
DYEAR=2003
DGENRE=Hip-Hop
TTITLE0=Street 노가리 Ⅱ (feat. 은준) 
TTITLE1=Fly High (feat. 정인, 하림(河琳)) 
TTITLE2=Spain (feat. 성훈 From Brown Eyed Soul) 
TTITLE3=Slow Down (feat. 김범수) 
TTITLE4=리쌍부르쓰 [Interlude] 
TTITLE5=리쌍부르쓰 (feat. 정인) 
TTITLE6=건-Life (feat. NaNa) 
TTITLE7=꼬리아 (feat. 이윤정) 
TTITLE8=알콜Man 
TTITLE9=831
TTITLE10=Still (feat. 정인) 
TTITLE11=아름다운 추억 
TTITLE12=인생은 아름다워-[Big Mama King Version, feat. Big Mama King] 
TTITLE13=x2
EXTD=YEAR: 2003
EXTT0=
EXTT1=
EXTT2=
EXTT3=
EXTT4=
EXTT5=
EXTT6=
EXTT7=
EXTT8=
EXTT9=
EXTT10=
EXTT11=
EXTT12=
EXTT13=
PLAYORDER=
